<svg version="1.1" id="Layer_1" xmlns="http://www.w3.org/2000/svg" xmlns:xlink="http://www.w3.org/1999/xlink" x="0px" y="0px"
	 width="100%" viewBox="0 0 1024 1024" enable-background="new 0 0 1024 1024" xml:space="preserve">
<path fill="#000000" opacity="1.000000" stroke="none" 
	d="
M305.835449,366.124634 
	C310.823242,369.969788 315.522949,373.604065 320.745483,377.642639 
	C320.745483,370.143677 320.669861,363.370728 320.766510,356.600189 
	C320.865204,349.684937 322.928284,347.676636 329.734467,347.650085 
	C337.564301,347.619568 345.394409,347.619843 353.224243,347.651337 
	C360.046570,347.678802 362.082306,349.617218 362.128235,356.599060 
	C362.229034,371.925140 362.496796,387.261322 362.049286,402.574463 
	C361.868195,408.772064 363.888092,412.731934 368.774414,416.351257 
	C376.928894,422.391296 384.624969,429.054260 392.453430,435.528290 
	C395.269867,437.857422 397.962097,440.233917 398.594208,444.281036 
	C399.606018,450.759125 395.775635,456.024658 389.259460,456.294464 
	C384.436310,456.494171 379.589264,456.531921 374.770294,456.291718 
	C370.654541,456.086639 369.249908,457.617249 369.276764,461.776672 
	C369.428528,485.265533 369.180664,508.757385 369.386871,532.245422 
	C369.709869,569.037537 358.557953,601.999817 336.313538,631.110291 
	C314.051819,660.243347 285.390533,681.080322 251.513931,694.930359 
	C247.802032,696.447937 244.478607,696.363586 240.955948,694.833618 
	C196.715775,675.619263 160.669647,646.989380 137.935410,603.651550 
	C127.542053,583.838989 122.446609,562.463135 121.526985,539.950317 
	C120.486061,514.468140 121.178207,488.996643 120.969269,463.522522 
	C120.930763,458.828583 119.697311,456.765259 114.767906,457.256775 
	C111.304253,457.602173 107.776947,457.360413 104.279343,457.303131 
	C97.940277,457.199310 94.299828,454.921814 92.454788,449.994720 
	C90.763702,445.478790 92.126320,441.449036 97.076813,437.410889 
	C127.275497,412.777588 157.492447,388.166626 187.744171,363.598511 
	C203.128998,351.104126 218.556808,338.661774 234.048660,326.300476 
	C241.656235,320.230194 246.568802,320.218201 254.228836,326.124176 
	C271.370789,339.340942 288.445312,352.645142 305.835449,366.124634 
M182.205490,623.301025 
	C199.376038,643.538818 221.144943,657.435242 244.776337,668.801575 
	C247.539429,670.130615 249.910873,669.538391 252.401505,668.397156 
	C271.897644,659.464417 290.250458,648.712219 305.949493,633.927979 
	C325.546875,615.472473 338.249603,593.197449 340.507935,566.096619 
	C342.764740,539.014343 341.369049,511.808533 341.590759,484.657593 
	C341.648895,477.541718 337.607391,472.711914 330.567078,471.294769 
	C308.932007,466.939972 287.313843,462.472626 265.592346,458.590668 
	C257.714569,457.182739 249.893250,455.023163 241.497223,456.802338 
	C217.298813,461.930145 192.980530,466.494843 168.696426,471.214355 
	C159.684921,472.965668 155.387589,476.989716 155.466171,485.782349 
	C155.692245,511.080383 154.467270,536.383606 156.198212,561.681946 
	C157.795959,585.033447 167.137909,604.952637 182.205490,623.301025 
z"/>
<path fill="#000000" opacity="1.000000" stroke="none" 
	d="
M501.348816,491.000092 
	C501.344788,498.662262 501.248199,505.826080 501.378723,512.985779 
	C501.436340,516.145569 500.338226,517.499084 497.055817,517.427612 
	C490.230103,517.279053 483.396149,517.274475 476.570892,517.436340 
	C473.096588,517.518738 471.772797,516.096130 471.880096,512.713867 
	C472.022675,508.220917 471.941772,503.720612 471.939575,499.223450 
	C471.919830,459.248566 471.973328,419.273285 471.775299,379.299286 
	C471.750824,374.361298 473.006378,372.597321 478.187012,372.687653 
	C495.670929,372.992401 513.164917,372.675507 530.651489,372.886810 
	C545.585449,373.067230 559.438232,376.388214 569.603455,388.540100 
	C578.454712,399.121246 580.934082,411.554993 579.800354,424.950470 
	C578.233765,443.460175 568.780396,455.879547 550.112610,461.984924 
	C561.597046,480.324890 572.841675,498.281799 584.004761,516.108643 
	C582.924622,517.942871 581.452209,517.375610 580.221436,517.383118 
	C573.059509,517.426636 565.868408,517.002808 558.744385,517.522095 
	C553.299683,517.918945 550.374268,515.825073 547.687927,511.279541 
	C539.473999,497.380463 530.664856,483.834045 522.376587,469.977356 
	C520.303467,466.511414 518.014587,465.241089 514.013000,465.303711 
	C501.354584,465.501831 501.351868,465.342529 501.349121,478.007904 
	C501.348206,482.171967 501.348724,486.336029 501.348816,491.000092 
M544.529297,403.961517 
	C541.315796,401.095825 537.513794,399.878448 533.272095,399.226196 
	C524.162170,397.825378 515.025269,398.721619 505.910461,398.365295 
	C502.406616,398.228271 501.270050,399.769043 501.308624,403.132507 
	C501.432465,413.932892 501.434845,424.736481 501.306274,435.536743 
	C501.267639,438.780548 502.518127,440.026978 505.691437,439.955688 
	C513.663757,439.776520 521.675354,440.174316 529.603577,439.520630 
	C537.901367,438.836517 545.268982,435.615753 548.603882,427.195984 
	C551.818054,419.080811 551.027161,411.288086 544.529297,403.961517 
z"/>
<path fill="#000000" opacity="1.000000" stroke="none" 
	d="
M568.862183,618.252991 
	C580.843811,633.129211 577.365234,665.612061 553.840027,677.952515 
	C531.277588,689.788025 497.600067,687.372009 477.807068,671.395508 
	C469.365753,664.581970 464.439087,655.465759 461.604523,644.199707 
	C470.958923,642.015259 480.052307,639.891785 489.212952,637.752563 
	C489.737274,638.634827 490.147919,639.153687 490.380981,639.742859 
	C498.303101,659.769958 521.473083,661.867859 536.064514,656.227356 
	C541.918762,653.964355 546.078186,649.831482 546.487000,643.387451 
	C546.891724,637.008545 542.871887,632.999512 537.561584,630.100464 
	C528.489258,625.147583 518.226685,624.190979 508.514221,621.398621 
	C500.352814,619.052185 492.277710,616.667908 484.787811,612.442200 
	C461.505768,599.306580 461.310516,563.838928 480.931335,548.283020 
	C490.579803,540.633423 501.582733,537.216125 513.706116,536.638489 
	C529.056213,535.907166 543.590149,538.215515 556.290283,547.633667 
	C565.545654,554.497253 570.954956,563.661987 572.955627,575.708740 
	C564.111084,577.559204 555.580261,579.432129 547.006653,581.082703 
	C544.530640,581.559387 544.328979,579.039856 543.533081,577.519775 
	C536.032776,563.194946 517.407898,557.988220 503.593536,566.378784 
	C494.053741,572.173096 493.883026,583.794312 503.400146,589.612854 
	C510.041016,593.672913 517.704956,594.882324 525.137817,596.604431 
	C535.041565,598.899109 544.828430,601.469788 553.913208,606.208557 
	C559.596375,609.172974 564.627380,612.923828 568.862183,618.252991 
z"/>
<path fill="#000000" opacity="1.000000" stroke="none" 
	d="
M665.622437,516.983154 
	C652.765076,520.443848 640.148010,520.820251 627.820374,517.106262 
	C611.549072,512.204102 600.050964,501.725983 594.386963,485.415222 
	C588.645752,468.882111 589.762817,452.539520 597.315002,436.975555 
	C606.949524,417.120361 623.868896,408.307526 645.395386,407.990326 
	C670.701965,407.617401 690.273926,423.216064 695.814697,447.800873 
	C697.170532,453.816986 697.304565,459.968536 697.454102,466.138672 
	C697.568176,470.848816 696.190186,472.493500 691.278076,472.439697 
	C669.626831,472.202393 647.971436,472.340851 626.317566,472.343140 
	C624.358765,472.343353 622.399963,472.343170 620.565796,472.343170 
	C619.086182,481.112549 627.630371,491.705841 636.214661,494.864624 
	C646.629761,498.696991 662.690491,496.691254 668.696899,486.728119 
	C669.531860,485.343079 670.729187,484.405182 672.415527,484.814240 
	C679.627747,486.563812 686.822266,488.386383 694.873718,490.394440 
	C688.962219,504.159698 679.185852,512.322632 665.622437,516.983154 
M634.514648,451.976929 
	C645.588623,451.976929 656.662659,451.976929 667.743896,451.976929 
	C667.325134,438.535828 657.229431,430.364990 642.550232,431.223236 
	C631.120483,431.891479 620.859009,441.834473 621.710205,451.974609 
	C625.615234,451.974609 629.569580,451.974609 634.514648,451.976929 
z"/>
<path fill="#000000" opacity="1.000000" stroke="none" 
	d="
M683.197144,613.297363 
	C683.221069,634.926270 683.131531,656.085571 683.305420,677.242859 
	C683.340393,681.496460 682.171509,683.333740 677.681396,683.088257 
	C672.199768,682.788574 666.677917,682.792786 661.195129,683.079712 
	C656.463745,683.327393 654.299988,681.695740 654.966309,676.796082 
	C655.136047,675.547913 654.801147,674.231079 654.637573,672.190552 
	C647.157715,680.127136 638.202393,683.638550 628.236206,684.924866 
	C616.712891,686.412109 595.471191,682.014893 588.773010,666.407959 
	C581.684387,649.891235 587.381104,629.976318 607.361023,623.805542 
	C620.543579,619.734131 634.234375,619.647217 647.887268,619.634338 
	C655.146606,619.627441 656.168274,618.176819 654.128540,610.972351 
	C651.251343,600.809570 643.105469,598.456238 634.244019,598.674744 
	C626.003113,598.877930 618.463196,601.694702 614.591248,610.037720 
	C613.696777,611.965332 612.573547,612.254395 610.626892,611.711426 
	C604.707581,610.060120 598.733948,608.604187 592.787476,607.049377 
	C589.445068,606.175537 589.424194,604.189636 590.566528,601.345337 
	C596.479614,586.622375 608.001770,579.107727 622.944153,576.147522 
	C634.191284,573.919250 645.445557,574.019104 656.441956,577.680603 
	C671.520203,582.701294 681.070801,592.422913 682.503174,608.893738 
	C682.618042,610.214417 682.946960,611.516418 683.197144,613.297363 
M629.657959,663.628601 
	C646.830383,663.447083 656.829712,652.784790 654.540771,636.543457 
	C644.563416,637.673767 634.367798,636.911865 624.554810,639.784363 
	C618.080566,641.679565 614.060059,646.946838 614.413025,652.425354 
	C614.752502,657.693420 618.553345,661.408569 625.366760,663.067810 
	C626.489258,663.341248 627.654541,663.438843 629.657959,663.628601 
z"/>
<path fill="#000000" opacity="1.000000" stroke="none" 
	d="
M821.135742,685.331665 
	C795.493225,683.907654 774.260315,667.915588 770.373779,642.238342 
	C766.839233,618.886414 772.906799,595.891785 793.641418,582.622742 
	C820.912659,565.170654 867.165161,575.199524 873.553040,617.860901 
	C874.327637,623.033875 874.003296,628.149658 874.382385,633.276733 
	C874.675171,637.236145 873.096619,638.456055 869.197388,638.430786 
	C847.535400,638.290283 825.872009,638.357727 804.209167,638.396301 
	C802.252686,638.399780 800.203857,637.939514 798.368896,639.039734 
	C797.955322,648.727478 806.389771,659.118896 816.903320,661.460938 
	C828.444519,664.031799 838.765137,662.193420 846.389526,652.151855 
	C847.355774,650.879272 848.231934,649.962891 850.087891,650.432068 
	C857.141663,652.215088 864.319214,653.544434 871.139404,656.045105 
	C868.757446,668.821472 850.062317,686.758423 821.135742,685.331665 
M824.499756,618.649109 
	C829.996826,618.648071 835.496521,618.543640 840.990051,618.682373 
	C844.641479,618.774536 846.168945,618.057983 844.901184,613.812805 
	C841.212891,601.461609 829.352844,594.603333 816.781555,597.968567 
	C806.557312,600.705566 798.996094,609.313354 799.153809,618.648560 
	C807.253784,618.648560 815.376831,618.648560 824.499756,618.649109 
z"/>
<path fill="#000000" opacity="1.000000" stroke="none" 
	d="
M789.260193,517.061523 
	C787.048767,515.105286 787.689270,512.817932 787.682556,510.733612 
	C787.625366,492.916351 787.618530,475.098694 787.674683,457.281433 
	C787.686340,453.571838 787.129028,449.973083 785.944946,446.511108 
	C783.037537,438.010529 775.644287,433.292816 765.699280,433.392731 
	C755.437683,433.495819 747.210388,438.916595 744.395386,447.669861 
	C743.073608,451.780304 742.256653,455.986908 742.284668,460.399017 
	C742.394592,477.716125 742.234985,495.035126 742.371887,512.351868 
	C742.401611,516.114868 741.488342,517.728455 737.351562,517.499939 
	C730.876709,517.142273 724.367371,517.323975 717.874573,517.415039 
	C715.016235,517.455078 713.621948,516.532715 713.628052,513.424988 
	C713.694031,479.623047 713.679565,445.821014 713.705444,412.018982 
	C713.705688,411.724609 713.956726,411.430450 714.210999,410.871918 
	C723.187500,410.871918 732.276672,410.871918 741.428345,410.871918 
	C743.330811,413.931580 741.440002,417.479156 742.998779,420.992096 
	C749.457397,414.998688 756.615662,410.544098 765.182983,409.185547 
	C781.813843,406.548462 797.106323,408.803040 808.613220,422.659668 
	C814.038208,429.192444 816.174194,437.122375 816.252869,445.406738 
	C816.463074,467.551666 816.223389,489.700867 816.420105,511.846039 
	C816.459473,516.276367 815.032227,517.698547 810.687195,517.481750 
	C803.710449,517.133728 796.709229,517.278625 789.260193,517.061523 
z"/>
<path fill="#000000" opacity="1.000000" stroke="none" 
	d="
M710.547302,575.298340 
	C710.582520,569.205750 710.652649,563.534973 711.933167,557.992249 
	C714.677490,546.113770 724.691528,537.242615 737.313843,535.767212 
	C745.268433,534.837402 753.229370,535.205933 761.120911,536.799927 
	C764.665466,537.515991 766.664062,538.971375 766.419373,543.107056 
	C766.077698,548.880310 766.333252,554.689026 766.333252,560.428711 
	C763.090088,561.939636 760.573792,560.359314 758.094788,559.962585 
	C755.266479,559.509827 752.468445,559.288330 749.655090,559.444397 
	C741.941040,559.872192 736.523438,568.797058 739.508667,575.943420 
	C740.266968,577.758789 741.772217,577.659912 743.259705,577.666504 
	C748.922607,577.691345 754.594543,577.880493 760.245728,577.624878 
	C764.273499,577.442627 765.531677,579.089355 765.362427,582.903503 
	C765.141113,587.890503 765.209778,592.897156 765.339966,597.890503 
	C765.419128,600.927917 764.078369,602.065430 761.166565,602.027527 
	C755.671204,601.955811 750.164062,602.228699 744.680908,601.963013 
	C740.507080,601.760742 739.240662,603.336060 739.267273,607.442505 
	C739.417480,630.593323 739.208923,653.746826 739.428284,676.896545 
	C739.473938,681.720215 737.991760,683.424072 733.201294,683.119324 
	C727.892700,682.781738 722.546204,683.058716 717.216431,683.030090 
	C710.719299,682.995178 710.700378,682.978088 710.697876,676.201904 
	C710.689392,653.549744 710.575562,630.896362 710.793762,608.246277 
	C710.839661,603.483521 709.435852,601.868896 704.609985,601.912964 
	C693.648376,602.013062 693.582581,601.790527 693.682129,591.174988 
	C693.720947,587.034363 692.034729,581.963806 694.444275,578.993225 
	C697.024963,575.811890 702.279724,578.128784 706.337952,577.694946 
	C707.986877,577.518738 709.759888,577.781799 710.547302,575.298340 
z"/>
<path fill="#000000" opacity="1.000000" stroke="none" 
	d="
M853.546753,507.344849 
	C849.422241,501.604645 847.584229,495.555023 847.617859,488.825378 
	C847.697632,472.835968 847.468811,456.843201 847.721191,440.857422 
	C847.798645,435.947723 846.528503,433.743622 841.297607,434.302582 
	C837.676025,434.689606 833.977051,434.316315 830.313599,434.359528 
	C827.789368,434.389282 826.698547,433.208282 826.719360,430.716431 
	C826.765198,425.220642 826.783081,419.723480 826.709290,414.228271 
	C826.675293,411.691254 827.746033,410.614899 830.285461,410.655640 
	C834.614502,410.725067 838.950073,410.523285 843.275146,410.667114 
	C846.504639,410.774536 847.736816,409.481049 847.684570,406.257629 
	C847.555542,398.287354 847.642273,390.313629 847.642273,381.623444 
	C856.662354,381.623444 865.253296,381.606415 873.844055,381.634216 
	C876.292542,381.642120 876.220581,383.500946 876.229919,385.185516 
	C876.259460,390.515320 876.232117,395.845459 876.269104,401.175171 
	C876.343933,411.954102 875.016541,410.537048 885.956726,410.634583 
	C891.618713,410.685089 897.281372,410.655975 902.943542,410.688416 
	C903.241882,410.690125 903.538818,410.931580 904.301880,411.264526 
	C904.301880,417.833099 904.300964,424.608337 904.302429,431.383575 
	C904.303040,434.301514 902.249939,434.358582 900.159302,434.362244 
	C893.663452,434.373627 887.165039,434.493195 880.672729,434.346832 
	C877.488770,434.275085 876.186707,435.377136 876.216187,438.661469 
	C876.347717,453.317627 876.133606,467.978882 876.417297,482.631073 
	C876.609863,492.577179 884.078979,497.336365 895.730652,495.469177 
	C903.008118,494.302948 903.001465,494.302887 902.940552,501.782684 
	C902.909302,505.613403 902.844421,509.445496 902.913147,513.274841 
	C902.959106,515.830078 901.921021,517.372559 899.371826,517.866333 
	C886.852478,520.291443 874.551758,519.998108 862.721008,514.703186 
	C859.183899,513.120117 856.294006,510.574768 853.546753,507.344849 
z"/>
<path fill="#000000" opacity="1.000000" stroke="none" 
	d="
M271.887451,632.991089 
	C265.273132,636.917419 258.866241,640.452942 252.096817,643.302490 
	C250.018311,644.177429 248.087677,644.580322 245.880295,643.561401 
	C222.567841,632.799561 202.483887,618.223083 189.287582,595.574097 
	C182.282959,583.552063 178.692169,570.528870 178.665619,556.587585 
	C178.628815,537.266602 178.784119,517.944031 178.562271,498.625549 
	C178.513718,494.397125 180.121460,492.674591 183.987839,491.907623 
	C203.842300,487.969086 223.659027,483.839661 243.520508,479.937622 
	C250.544540,478.557648 257.416595,480.722992 264.253052,481.822754 
	C280.954742,484.509491 297.586334,487.608307 314.093323,491.382385 
	C317.778107,492.224884 318.571533,493.947235 318.555511,497.174286 
	C318.443756,519.658936 319.032318,542.168518 318.149689,564.621155 
	C317.431122,582.899658 309.030304,598.464539 296.965179,611.977417 
	C289.726288,620.084961 281.571503,627.188782 271.887451,632.991089 
M292.809692,526.689392 
	C287.021576,521.068787 285.166229,521.118225 279.948456,527.163879 
	C270.271851,538.375916 260.699219,549.678894 250.920654,560.801025 
	C247.241196,564.986084 244.095596,569.727966 238.749313,573.657776 
	C232.416046,567.095947 226.227219,560.606750 219.948349,554.205811 
	C215.875229,550.053589 213.003220,550.178101 209.033188,554.477600 
	C207.904144,555.700378 206.897003,557.044434 205.701416,558.195129 
	C202.802017,560.985718 203.043976,563.476440 205.862564,566.270691 
	C215.202362,575.529724 224.365692,584.966919 233.712296,594.219055 
	C238.893784,599.348145 241.762833,599.132751 246.573059,593.600769 
	C262.301270,575.512390 278.014862,557.411255 293.717255,539.300476 
	C299.142731,533.042847 299.120331,533.023438 292.809692,526.689392 
z"/>
</svg>